<?xml version="1.0" encoding="utf-8"?>
<!-- Generator: Adobe Illustrator 22.0.0, SVG Export Plug-In . SVG Version: 6.00 Build 0)  -->
<svg version="1.1" xmlns="http://www.w3.org/2000/svg" xmlns:xlink="http://www.w3.org/1999/xlink" x="0px" y="0px"
	 viewBox="0 0 86 86" style="enable-background:new 0 0 86 86;" xml:space="preserve">
<style type="text/css">
	.st0{fill:url(#SVGID_1_);}
	.st1{display:none;}
	.st2{clip-path:url(#SVGID_3_);fill:url(#SVGID_4_);}
</style>
<g id="Слой_1">
	
		<linearGradient id="SVGID_1_" gradientUnits="userSpaceOnUse" x1="-462.3735" y1="549.6664" x2="-461.5248" y2="550.515" gradientTransform="matrix(85.4 0 0 -85.4 39499.4961 47014.6953)">
		<stop  offset="0" style="stop-color:#151591"/>
		<stop  offset="3.043478e-02" style="stop-color:#202079"/>
		<stop  offset="1" style="stop-color:#638ED5"/>
	</linearGradient>
	<path class="st0" d="M85.7,1.7c0-0.8-0.6-1.4-1.4-1.4c0,0-40.6,0-41.3,0C19.4,0.3,0.3,19.4,0.3,43c0,23.6,19.1,42.7,42.7,42.7
		S85.7,66.6,85.7,43C85.7,42.4,85.7,1.7,85.7,1.7z"/>
</g>
<g id="Слой_2" class="st1">
</g>
<g id="Слой_3">
	<g>
		<defs>
			<path id="SVGID_2_" d="M85.7,1.7c0-0.8-0.6-1.4-1.4-1.4c0,0-40.6,0-41.3,0C19.4,0.3,0.3,19.4,0.3,43c0,23.6,19.1,42.7,42.7,42.7
				S85.7,66.6,85.7,43C85.7,42.4,85.7,1.7,85.7,1.7z"/>
		</defs>
		<clipPath id="SVGID_3_">
			<use xlink:href="#SVGID_2_"  style="overflow:visible;"/>
		</clipPath>
		
			<linearGradient id="SVGID_4_" gradientUnits="userSpaceOnUse" x1="-461.9327" y1="549.228" x2="-461.2256" y2="549.9351" gradientTransform="matrix(79.038 0 0 -79.0704 36533.3242 43490.6797)">
			<stop  offset="0" style="stop-color:#FFFFFF"/>
			<stop  offset="0.9913" style="stop-color:#D6E6FF"/>
		</linearGradient>
		<path class="st2" d="M55.2,41.9c0,0-0.1-0.2-0.3-0.5c-0.2-0.3-0.6-1,0.1-1.8l0.9-0.9c1.2-1.2,1.6-2.9,1.2-4.2
			c-0.1-0.3-0.4-0.9,0.2-1.4L89.4,1c1.4-1.4,1.6-3.5,0.4-4.7c-1.2-1.2-3.2-1-4.7,0.4L53,28.9c-0.5,0.5-1.2,0.2-1.5,0.1
			c-1.3-0.4-2.9,0-4.1,1.2l-1,1c-0.5,0.5-1.2,0.2-1.4,0.1c-0.4-0.3-0.7-0.4-0.7-0.4C39.4,28,31,33.5,30.7,33.8L13.3,44.9
			c-1,0.6-1.7,1.4-1.8,2.7c-0.1,1.2,0.3,4.1,2.4,8.9c1.7,4,5.4,8.3,6.8,9.6c1.4,1.3,4.8,4.2,9,6.1c3.3,1.4,7.6,2.7,8.8,2.4
			c1.1-0.3,2-0.8,2.7-1.8l12-18.7C53.4,53.8,58.4,46.2,55.2,41.9z"/>
	</g>
</g>
</svg>
